<svg xmlns="http://www.w3.org/2000/svg" xml:space="preserve" style="enable-background:new 0 0 100 100" viewBox="0 0 100 100">
  <path d="M0 0h100v100H0z"/>
  <path d="M54.3 57.2c-1 1.9-3.9 3.2-7.2 3.2-8.8 0-14.7-6.3-14.7-15.9 0-10.7 5.4-17 14.7-17 4.7 0 8.3 1.3 9.9 3.4l1.1-1.7c.4-.5.9-.9 1.4-.9h6.4c.5 0 .9.4.9.9v29.2c0 9.1-8.3 15.2-18.5 15.2-6 0-11.3-1.4-14.3-3.8-.4-.3-.5-.7-.4-1l3.1-7.5c.2-.4.5-.6.9-.4 2.6 2.1 6.6 3.4 10.6 3.4 3.8 0 6.1-2 6.1-5.4v-1.7zm0-15.7s-.9-2.7-4.2-2.7c-3 0-4.8 2.1-4.8 5.7s1.8 5.8 4.8 5.8c3.3 0 4.2-2.7 4.2-2.7v-6.1z" style="fill:#fff"/>
</svg>
